<?xml version="1.0" standalone="no"?><!DOCTYPE svg PUBLIC "-//W3C//DTD SVG 1.1//EN" "http://www.w3.org/Graphics/SVG/1.1/DTD/svg11.dtd"><svg t="1765786593668" class="icon" viewBox="0 0 1024 1024" version="1.1" xmlns="http://www.w3.org/2000/svg" p-id="52133" xmlns:xlink="http://www.w3.org/1999/xlink" width="14" height="14"><path d="M1003.072 820.16L601.28 111.68c-49.152-86.592-129.408-86.592-178.56 0L20.992 820.16c-49.152 86.656-8.96 157.44 89.216 157.44h803.584c98.176 0 138.368-70.784 89.28-157.44z m-546.24-507.52c14.464-15.808 32.768-23.808 55.168-23.808s40.768 7.872 55.168 23.552c14.4 15.68 21.568 35.328 21.568 58.88 0 20.352-29.952 169.664-40 278.272H476.544c-8.768-108.608-41.28-257.92-41.28-278.208 0-23.296 7.232-42.816 21.568-58.624z m109.376 516.608a74.24 74.24 0 0 1-54.208 22.528 74.24 74.24 0 0 1-54.144-22.528 73.984 73.984 0 0 1-22.656-54.592c0-21.248 7.488-39.68 22.656-55.04 15.168-15.488 33.28-23.168 54.144-23.168 20.928 0 39.04 7.68 54.208 23.104 15.104 15.424 22.656 33.856 22.656 55.04 0 21.44-7.552 39.616-22.656 54.656z" fill="#7E0607" opacity=".696" p-id="52134"></path></svg>