<?xml version="1.0" standalone="no"?><!DOCTYPE svg PUBLIC "-//W3C//DTD SVG 1.1//EN" "http://www.w3.org/Graphics/SVG/1.1/DTD/svg11.dtd"><svg t="1765866767028" class="icon" viewBox="0 0 1024 1024" version="1.1" xmlns="http://www.w3.org/2000/svg" p-id="101625" xmlns:xlink="http://www.w3.org/1999/xlink" width="14" height="14"><path d="M814.848 64a104.32 104.32 0 0 1 104.576 103.936v401.92c0 57.664-47.104 104-104.576 104H641.92c26.944 30.336 43.008 70.016 43.008 113.28l-0.512 10.24h309.056a31.04 31.04 0 0 1-0.512 62.272h-324.608A173.312 173.312 0 0 1 510.912 960a173.312 173.312 0 0 1-157.312-100.352H31.04A31.04 31.04 0 0 1 0 828.736c0-16.96 13.952-30.848 31.04-30.848H338.56c-0.512-3.584-0.512-6.72-0.512-10.24 0-43.264 16.576-82.944 42.944-113.28H208.64a104.32 104.32 0 0 1-104.576-103.936V167.936c0-57.6 47.104-103.936 104.576-103.936h606.208z m-303.36 612.48c-61.632 0-111.36 49.344-111.36 110.592s49.728 110.656 111.36 110.656c61.568 0 111.296-49.408 111.296-110.656 0-61.248-49.728-110.656-111.36-110.656z m0 71.936a42.944 42.944 0 1 1 0 85.888 42.944 42.944 0 0 1 0-85.888z m303.872-622.656H208.64a42.496 42.496 0 0 0-42.432 42.24v401.92c0 23.168 19.136 42.176 42.432 42.688h606.72a42.496 42.496 0 0 0 42.432-42.24V168c0-23.168-19.136-42.176-42.432-42.176zM454.528 211.008l114.944 206.592 60.032-78.208h134.08c17.6 0 31.616 14.016 31.616 31.104a31.168 31.168 0 0 1-31.104 31.04h-103.488L561.728 530.432 445.76 322.816l-61.632 78.72h-135.68a31.168 31.168 0 0 1-31.04-31.04c0-17.088 14.016-31.104 31.104-31.104h105.6l100.48-128.384z" p-id="101626"></path></svg>