<?xml version="1.0" standalone="no"?><!DOCTYPE svg PUBLIC "-//W3C//DTD SVG 1.1//EN" "http://www.w3.org/Graphics/SVG/1.1/DTD/svg11.dtd"><svg t="1765866706283" class="icon" viewBox="0 0 1024 1024" version="1.1" xmlns="http://www.w3.org/2000/svg" p-id="101464" xmlns:xlink="http://www.w3.org/1999/xlink" width="14" height="14"><path d="M960 123.712C872.704 49.92 704.768 0 512 0 319.168 0 151.296 49.92 64 123.712 23.168 158.208 0 197.76 0 240v544C0 916.48 229.184 1024 512 1024c282.816 0 512-107.52 512-240v-544c0-42.24-23.232-81.792-64-116.288zM87.808 189.376c19.84-21.888 50.688-43.072 89.408-61.184 42.24-19.84 92.096-35.52 147.968-46.592A962.88 962.88 0 0 1 512 64c65.024 0 127.808 5.888 186.816 17.6 55.872 11.072 105.664 26.816 147.968 46.592 38.72 18.112 69.632 39.296 89.408 61.184 15.808 17.536 23.808 34.56 23.808 50.56 0 16.064-8 33.088-23.808 50.432-19.84 21.952-50.688 43.136-89.408 61.248-42.24 19.84-92.096 35.456-147.968 46.592-59.008 11.712-121.92 17.6-186.816 17.6s-127.808-5.888-186.816-17.6c-55.872-11.136-105.664-26.816-147.968-46.592-38.72-18.112-69.632-39.296-89.408-61.248C72 273.152 64 256.128 64 240s8-33.088 23.808-50.56zM64 356.288C151.296 430.08 319.168 480 512 480c192.768 0 360.704-49.92 448-123.712v155.328c0 16.064-8 33.088-23.808 50.496-19.84 21.888-50.688 43.072-89.408 61.184-42.24 19.84-92.096 35.52-147.968 46.592-59.008 11.712-121.92 17.6-186.816 17.6s-127.808-5.888-186.816-17.6c-55.872-11.072-105.664-26.816-147.968-46.592-38.72-18.112-69.632-39.296-89.408-61.184-15.808-17.536-23.808-34.56-23.808-50.56V356.352z m896 427.712c0 16.128-8 33.088-23.808 50.56-19.84 21.824-50.688 43.072-89.408 61.12-42.24 19.904-92.096 35.52-147.968 46.592-59.008 11.712-121.92 17.6-186.816 17.6s-127.808-5.888-186.816-17.6c-55.872-11.072-105.664-26.752-147.968-46.592-38.72-18.048-69.632-39.296-89.408-61.184-15.808-17.408-23.808-34.368-23.808-50.496V627.84c87.296 73.728 255.168 123.648 448 123.648 192.768 0 360.704-49.92 448-123.712v156.224z" p-id="101465"></path><path d="M128 519.68a40 40 0 1 0 80 0 40 40 0 0 0-80 0zM128 791.68a40 40 0 1 0 80 0 40 40 0 0 0-80 0z" p-id="101466"></path></svg>