<?xml version="1.0" standalone="no"?><!DOCTYPE svg PUBLIC "-//W3C//DTD SVG 1.1//EN" "http://www.w3.org/Graphics/SVG/1.1/DTD/svg11.dtd"><svg class="icon" width="32px" height="32.00px" viewBox="0 0 1024 1024" version="1.1" xmlns="http://www.w3.org/2000/svg"><path d="M512 512m-512 0a512 512 0 1 0 1024 0 512 512 0 1 0-1024 0Z" fill="#0E58B5" /><path d="M725.845333 213.333333c26.112 0 47.488 23.552 47.488 49.706667s-21.376 47.104-45.141333 47.104a27.52 27.52 0 0 1-14.250667-2.645333l-33.28 54.954666c54.613333 36.608 92.586667 96.810667 92.586667 183.125334v39.253333c-0.298667 101.034667-74.581333 182.869333-166.357333 183.168h-142.464c-91.733333-0.298667-166.058667-82.133333-166.314667-183.125333v-39.253334c0-86.357333 37.973333-143.914667 90.282667-180.522666l-35.669334-57.6a27.52 27.52 0 0 1-14.250666 2.645333c-26.410667 0-45.525333-21.461333-45.141334-47.957333 0.426667-26.453333 21.504-46.250667 45.568-46.250667 25.898667 0.213333 44.714667 21.077333 44.629334 47.104a41.642667 41.642667 0 0 1-9.514667 28.8l38.144 60.16a287.274667 287.274667 0 0 1 123.52-28.8c42.794667 0 83.2 7.850667 121.130667 26.154667l33.365333-60.16c-4.778667-7.850667-9.514667-18.346667-9.514667-28.757334 0-26.197333 21.376-47.104 45.184-47.104z m-56.277333 295.808H395.818667c-16.810667-0.170667-32.981333 7.722667-44.8 21.973334a80.981333 80.981333 0 0 0-17.664 53.376c1.066667 40.661333 29.354667 72.874667 63.744 72.533333h273.749333c16.810667 0.256 32.981333-7.68 44.8-21.888 11.776-14.208 18.133333-33.493333 17.664-53.418667-1.066667-40.661333-29.354667-72.874667-63.744-72.533333z m-9.301333 43.093334a36.693333 36.693333 0 0 1-18.56 68.181333 36.693333 36.693333 0 1 1-18.56-68.181333 36.437333 36.437333 0 0 1 37.12 0z m-256.085334 0a36.437333 36.437333 0 0 1 37.162667 0 36.693333 36.693333 0 0 1-18.56 68.181333 36.693333 36.693333 0 1 1-18.56-68.181333z m386.56 79.573333v-122.666667c32.725333-2.773333 62.250667 26.197333 62.592 60.373334 0.256 34.986667-28.714667 64.384-62.549333 62.293333zM275.2 632.32A61.44 61.44 0 0 1 213.333333 571.818667c-0.64-35.114667 25.6-62.378667 61.866667-63.317334v123.861334z" fill="#FFFFFF" /></svg>