<?xml version="1.0" standalone="no"?><!DOCTYPE svg PUBLIC "-//W3C//DTD SVG 1.1//EN" "http://www.w3.org/Graphics/SVG/1.1/DTD/svg11.dtd"><svg class="icon" width="64px" height="64.00px" viewBox="0 0 1024 1024" version="1.1" xmlns="http://www.w3.org/2000/svg"><path d="M512 512m-512 0a512 512 0 1 0 1024 0 512 512 0 1 0-1024 0Z" fill="#0E58B5" /><path d="M546.773333 525.738667c36.864-40.405333 95.829333-43.093333 135.68-6.229334 39.808 36.864 47.189333 100.992 16.981334 147.541334l63.658666 69.76a19.498667 19.498667 0 0 1 0 25.856 15.658667 15.658667 0 0 1-23.552 0L675.84 692.906667c-42.496 33.109333-101.12 25.002667-134.741333-18.602667-33.706667-43.605333-31.232-108.202667 5.674666-148.565333zM681.813333 256A86.186667 86.186667 0 0 1 768 342.186667l-0.768 224.725333a18.304 18.304 0 0 1-36.608-0.042667l0.768-224.682666c0-13.226667-5.12-25.728-14.506667-35.114667a49.322667 49.322667 0 0 0-35.072-14.506667H342.186667A49.621333 49.621333 0 0 0 292.48 342.186667v339.626666a49.621333 49.621333 0 0 0 49.621333 49.664h224.682667a18.261333 18.261333 0 1 1 0 36.522667H342.186667A86.101333 86.101333 0 0 1 256 681.813333V342.186667A86.101333 86.101333 0 0 1 342.186667 256h339.626666z m-8.533333 306.816c-17.664-29.013333-51.626667-40.277333-81.066667-26.922667-29.44 13.354667-46.208 47.616-39.978666 81.877334 6.229333 34.218667 33.664 58.88 65.536 58.88a63.573333 63.573333 0 0 0 47.232-21.418667c22.528-24.704 26.026667-63.36 8.32-92.416z m-272.597333 40.618667h66.816c5.973333 0 11.52 3.413333 14.549333 9.088 3.029333 5.674667 3.029333 12.714667 0 18.346666a16.426667 16.426667 0 0 1-14.549333 9.088H400.64c-9.216 0-16.64-8.192-16.64-18.261333s7.424-18.261333 16.64-18.261333z m100.181333-109.653334c5.973333 0 11.477333 3.498667 14.464 9.173334 2.986667 5.632 2.986667 12.629333 0 18.261333a16.469333 16.469333 0 0 1-14.464 9.130667H400.682667a16.469333 16.469333 0 0 1-14.421334-9.130667 19.754667 19.754667 0 0 1 0-18.261333 16.469333 16.469333 0 0 1 14.421334-9.130667h100.181333zM400.682667 384l267.178666 0.085333c9.216 0 16.682667 8.234667 16.682667 18.346667 0 10.069333-7.466667 18.346667-16.682667 18.346667l-267.178666-0.128c-9.216 0-16.682667-8.277333-16.682667-18.346667C384 392.192 391.466667 384 400.682667 384z" fill="#FFFFFF" /></svg>