<?xml version="1.0" standalone="no"?><!DOCTYPE svg PUBLIC "-//W3C//DTD SVG 1.1//EN" "http://www.w3.org/Graphics/SVG/1.1/DTD/svg11.dtd"><svg class="icon" width="64px" height="64.00px" viewBox="0 0 1024 1024" version="1.1" xmlns="http://www.w3.org/2000/svg"><path d="M512 512m-512 0a512 512 0 1 0 1024 0 512 512 0 1 0-1024 0Z" fill="#0E58B5" /><path d="M340.010667 256h-32.469334a50.005333 50.005333 0 0 0-35.925333 13.397333A48.64 48.64 0 0 0 256 304.042667v32A49.365333 49.365333 0 0 0 306.261333 384h32.426667c13.269333 0.469333 26.24-4.309333 35.968-13.397333 9.685333-8.96 15.36-21.504 15.616-34.688v-32a49.365333 49.365333 0 0 0-50.261333-47.914667z m16.512 80.042667a16.213333 16.213333 0 0 1-16.853334 16h-32.426666a16.725333 16.725333 0 0 1-13.056-3.797334 16.213333 16.213333 0 0 1-5.76-12.16v-32a16.213333 16.213333 0 0 1 5.418666-11.818666 16.725333 16.725333 0 0 1 12.373334-4.181334h32.426666a16.512 16.512 0 0 1 16.938667 16l0.938667 32v-0.042666zM340.053333 448h-32.512c-13.269333-0.469333-26.24 4.266667-35.925333 13.312a48.64 48.64 0 0 0-15.616 34.688v32A49.365333 49.365333 0 0 0 306.261333 576h32.426667c13.269333 0.554667 26.24-4.266667 35.968-13.312 9.685333-8.96 15.36-21.504 15.616-34.688v-32A49.365333 49.365333 0 0 0 340.010667 448h0.042666z m16.512 80a16.213333 16.213333 0 0 1-16.810666 16H307.2a16.725333 16.725333 0 0 1-13.013333-3.84 16.213333 16.213333 0 0 1-5.76-12.16v-32a16.213333 16.213333 0 0 1 5.418666-11.776 16.725333 16.725333 0 0 1 12.373334-4.224h32.426666a16.384 16.384 0 0 1 16.938667 16.042667l0.938667 32h0.042666zM340.053333 640h-32.512c-13.269333-0.512-26.24 4.266667-35.925333 13.312a48.64 48.64 0 0 0-15.616 34.688v32A49.365333 49.365333 0 0 0 306.261333 768h32.426667a49.365333 49.365333 0 0 0 50.304-48v-32A49.365333 49.365333 0 0 0 340.010667 640h0.042666z m16.853334 80a16.213333 16.213333 0 0 1-5.12 11.434667 16.725333 16.725333 0 0 1-11.733334 4.565333h-32.512a16.213333 16.213333 0 0 1-19.072-16v-32a16.213333 16.213333 0 0 1 16.810667-15.957333h32.426667a16.725333 16.725333 0 0 1 11.818666 4.48c3.2 3.029333 4.992 7.125333 5.034667 11.477333l2.261333 32h0.085334z m105.728-416h262.954666a16.213333 16.213333 0 0 0 16.810667-16 16.213333 16.213333 0 0 0-5.12-11.349333 16.725333 16.725333 0 0 0-11.776-4.565334h-262.826667a16.725333 16.725333 0 0 0-11.818666 4.48 16.213333 16.213333 0 0 0-5.12 11.52 16.64 16.64 0 0 0 16.853333 16l0.042667-0.042666z m262.954666 117.461333h-262.954666a16.128 16.128 0 0 0-16.213334 16c0 8.832 7.253333 16 16.213334 16h262.954666c8.96 0 16.213333-7.168 16.213334-16a16.042667 16.042667 0 0 0-16.213334-16z m0 149.12h-262.954666a16.128 16.128 0 0 0-16.213334 16c0 8.832 7.253333 16 16.213334 16h262.954666c8.96 0 16.213333-7.168 16.213334-16a16.042667 16.042667 0 0 0-16.213334-16z m0 149.418667h-262.954666a16.128 16.128 0 0 0-16.213334 16c0 8.832 7.253333 16 16.213334 16h262.954666c8.96 0 16.213333-7.168 16.213334-16a16.042667 16.042667 0 0 0-16.213334-16z" fill="#FFFFFF" /></svg>