<?xml version="1.0" standalone="no"?><!DOCTYPE svg PUBLIC "-//W3C//DTD SVG 1.1//EN" "http://www.w3.org/Graphics/SVG/1.1/DTD/svg11.dtd"><svg t="1766457719058" class="icon" viewBox="0 0 1024 1024" version="1.1" xmlns="http://www.w3.org/2000/svg" p-id="208475" xmlns:xlink="http://www.w3.org/1999/xlink" width="16" height="16"><path d="M860.928 163.584a493.1072 493.1072 0 0 0-697.2928 0 492.4416 492.4416 0 0 0 0 696.832 493.1072 493.1072 0 0 0 697.2928 0c191.8464-191.744 191.8464-504.32 0-696.832zM845.824 409.6l-376.0128 384-221.2352-225.9456a65.024 65.024 0 0 1 0-90.2144 61.8496 61.8496 0 0 1 88.32 0l132.9152 135.68 287.6928-293.7344a61.8496 61.8496 0 0 1 88.32 0 65.024 65.024 0 0 1 0 90.2144z" p-id="208476" fill="#ffffff"></path></svg>